<mxfile host="app.diagrams.net" agent="Mozilla/5.0 (Macintosh; Intel Mac OS X 10_15_7) AppleWebKit/537.36 (KHTML, like Gecko) Chrome/130.0.0.0 Safari/537.36" version="24.8.4">
  <diagram name="Page-1" id="iBbNwhJZEXAIrNabX--G">
    <mxGraphModel dx="1026" dy="684" grid="1" gridSize="10" guides="1" tooltips="1" connect="1" arrows="1" fold="1" page="1" pageScale="1" pageWidth="850" pageHeight="1100" math="0" shadow="0">
      <root>
        <mxCell id="0" />
        <mxCell id="1" parent="0" />
        <mxCell id="_eeOD_WB6qsGcqNLHBst-2" value="&lt;font style=&quot;font-size: 19px;&quot;&gt;Arduino Uno&lt;/font&gt;" style="rounded=0;whiteSpace=wrap;html=1;" vertex="1" parent="1">
          <mxGeometry x="260" y="110" width="160" height="240" as="geometry" />
        </mxCell>
        <mxCell id="_eeOD_WB6qsGcqNLHBst-3" value="MPU6050" style="rounded=0;whiteSpace=wrap;html=1;" vertex="1" parent="1">
          <mxGeometry x="540" y="150" width="80" height="80" as="geometry" />
        </mxCell>
        <mxCell id="_eeOD_WB6qsGcqNLHBst-5" value="" style="endArrow=none;html=1;rounded=0;entryX=0;entryY=0.25;entryDx=0;entryDy=0;strokeColor=#b85450;fillColor=#f8cecc;" edge="1" parent="1" target="_eeOD_WB6qsGcqNLHBst-3">
          <mxGeometry width="50" height="50" relative="1" as="geometry">
            <mxPoint x="420" y="170" as="sourcePoint" />
            <mxPoint x="530" y="170" as="targetPoint" />
          </mxGeometry>
        </mxCell>
        <mxCell id="_eeOD_WB6qsGcqNLHBst-6" value="" style="endArrow=none;html=1;rounded=0;entryX=0;entryY=0.25;entryDx=0;entryDy=0;strokeColor=#b85450;fillColor=#f8cecc;" edge="1" parent="1">
          <mxGeometry width="50" height="50" relative="1" as="geometry">
            <mxPoint x="420" y="180" as="sourcePoint" />
            <mxPoint x="540" y="180" as="targetPoint" />
          </mxGeometry>
        </mxCell>
        <mxCell id="_eeOD_WB6qsGcqNLHBst-7" value="" style="endArrow=none;html=1;rounded=0;entryX=0;entryY=0.25;entryDx=0;entryDy=0;fillColor=#f8cecc;strokeColor=#b85450;" edge="1" parent="1">
          <mxGeometry width="50" height="50" relative="1" as="geometry">
            <mxPoint x="420" y="189.5" as="sourcePoint" />
            <mxPoint x="540" y="189.5" as="targetPoint" />
          </mxGeometry>
        </mxCell>
        <mxCell id="_eeOD_WB6qsGcqNLHBst-8" value="" style="endArrow=none;html=1;rounded=0;entryX=0;entryY=0.25;entryDx=0;entryDy=0;strokeColor=#000000;" edge="1" parent="1">
          <mxGeometry width="50" height="50" relative="1" as="geometry">
            <mxPoint x="420" y="200" as="sourcePoint" />
            <mxPoint x="540" y="200" as="targetPoint" />
          </mxGeometry>
        </mxCell>
        <mxCell id="_eeOD_WB6qsGcqNLHBst-9" value="" style="endArrow=none;html=1;rounded=0;strokeColor=#000000;" edge="1" parent="1">
          <mxGeometry width="50" height="50" relative="1" as="geometry">
            <mxPoint x="420" y="270" as="sourcePoint" />
            <mxPoint x="640" y="270" as="targetPoint" />
          </mxGeometry>
        </mxCell>
        <mxCell id="_eeOD_WB6qsGcqNLHBst-11" value="LED" style="ellipse;whiteSpace=wrap;html=1;fillColor=#f8cecc;strokeColor=#b85450;" vertex="1" parent="1">
          <mxGeometry x="500" y="280" width="30" height="70" as="geometry" />
        </mxCell>
        <mxCell id="_eeOD_WB6qsGcqNLHBst-12" value="LED" style="ellipse;whiteSpace=wrap;html=1;fillColor=#fff2cc;strokeColor=#d6b656;" vertex="1" parent="1">
          <mxGeometry x="540" y="280" width="30" height="70" as="geometry" />
        </mxCell>
        <mxCell id="_eeOD_WB6qsGcqNLHBst-13" value="LED" style="ellipse;whiteSpace=wrap;html=1;fillColor=#d5e8d4;strokeColor=#82b366;" vertex="1" parent="1">
          <mxGeometry x="580" y="280" width="30" height="70" as="geometry" />
        </mxCell>
        <mxCell id="_eeOD_WB6qsGcqNLHBst-14" value="LED" style="ellipse;whiteSpace=wrap;html=1;fillColor=#dae8fc;strokeColor=#6c8ebf;" vertex="1" parent="1">
          <mxGeometry x="620" y="280" width="30" height="70" as="geometry" />
        </mxCell>
        <mxCell id="_eeOD_WB6qsGcqNLHBst-15" value="" style="endArrow=none;html=1;rounded=0;exitX=0.5;exitY=0;exitDx=0;exitDy=0;" edge="1" parent="1" source="_eeOD_WB6qsGcqNLHBst-11">
          <mxGeometry width="50" height="50" relative="1" as="geometry">
            <mxPoint x="500" y="300" as="sourcePoint" />
            <mxPoint x="510" y="270" as="targetPoint" />
          </mxGeometry>
        </mxCell>
        <mxCell id="_eeOD_WB6qsGcqNLHBst-17" value="" style="endArrow=none;html=1;rounded=0;exitX=0.5;exitY=0;exitDx=0;exitDy=0;" edge="1" parent="1">
          <mxGeometry width="50" height="50" relative="1" as="geometry">
            <mxPoint x="555" y="280" as="sourcePoint" />
            <mxPoint x="550" y="270" as="targetPoint" />
          </mxGeometry>
        </mxCell>
        <mxCell id="_eeOD_WB6qsGcqNLHBst-18" value="" style="endArrow=none;html=1;rounded=0;exitX=0.5;exitY=0;exitDx=0;exitDy=0;" edge="1" parent="1">
          <mxGeometry width="50" height="50" relative="1" as="geometry">
            <mxPoint x="597.5" y="280" as="sourcePoint" />
            <mxPoint x="592.5" y="270" as="targetPoint" />
          </mxGeometry>
        </mxCell>
        <mxCell id="_eeOD_WB6qsGcqNLHBst-19" value="" style="endArrow=none;html=1;rounded=0;exitX=0.5;exitY=0;exitDx=0;exitDy=0;" edge="1" parent="1" source="_eeOD_WB6qsGcqNLHBst-14">
          <mxGeometry width="50" height="50" relative="1" as="geometry">
            <mxPoint x="637.5" y="280" as="sourcePoint" />
            <mxPoint x="640" y="270" as="targetPoint" />
          </mxGeometry>
        </mxCell>
        <mxCell id="_eeOD_WB6qsGcqNLHBst-20" value="" style="endArrow=none;html=1;rounded=0;exitX=0.933;exitY=1.002;exitDx=0;exitDy=0;exitPerimeter=0;entryX=0.5;entryY=1;entryDx=0;entryDy=0;fillColor=#f8cecc;strokeColor=#b85450;" edge="1" parent="1" source="_eeOD_WB6qsGcqNLHBst-2" target="_eeOD_WB6qsGcqNLHBst-11">
          <mxGeometry width="50" height="50" relative="1" as="geometry">
            <mxPoint x="410" y="360" as="sourcePoint" />
            <mxPoint x="520" y="360" as="targetPoint" />
            <Array as="points">
              <mxPoint x="410" y="360" />
              <mxPoint x="515" y="360" />
            </Array>
          </mxGeometry>
        </mxCell>
        <mxCell id="_eeOD_WB6qsGcqNLHBst-23" value="&lt;p style=&quot;font-size: 12px;&quot;&gt;&lt;br&gt;&lt;/p&gt;" style="edgeLabel;html=1;align=center;verticalAlign=middle;resizable=0;points=[];" vertex="1" connectable="0" parent="_eeOD_WB6qsGcqNLHBst-20">
          <mxGeometry x="0.0854" y="1" relative="1" as="geometry">
            <mxPoint as="offset" />
          </mxGeometry>
        </mxCell>
        <mxCell id="_eeOD_WB6qsGcqNLHBst-22" value="" style="endArrow=none;html=1;rounded=0;entryX=0.424;entryY=0.994;entryDx=0;entryDy=0;fillColor=#f8cecc;strokeColor=#b85450;entryPerimeter=0;" edge="1" parent="1" target="_eeOD_WB6qsGcqNLHBst-12">
          <mxGeometry width="50" height="50" relative="1" as="geometry">
            <mxPoint x="406" y="350" as="sourcePoint" />
            <mxPoint x="511" y="352.76" as="targetPoint" />
            <Array as="points">
              <mxPoint x="406" y="362.76" />
              <mxPoint x="550" y="363" />
            </Array>
          </mxGeometry>
        </mxCell>
        <mxCell id="_eeOD_WB6qsGcqNLHBst-24" value="" style="endArrow=none;html=1;rounded=0;entryX=0.5;entryY=1;entryDx=0;entryDy=0;fillColor=#f8cecc;strokeColor=#b85450;" edge="1" parent="1" target="_eeOD_WB6qsGcqNLHBst-13">
          <mxGeometry width="50" height="50" relative="1" as="geometry">
            <mxPoint x="402" y="350" as="sourcePoint" />
            <mxPoint x="550" y="353" as="targetPoint" />
            <Array as="points">
              <mxPoint x="403" y="365.76" />
              <mxPoint x="590" y="366" />
            </Array>
          </mxGeometry>
        </mxCell>
        <mxCell id="_eeOD_WB6qsGcqNLHBst-25" value="" style="endArrow=none;html=1;rounded=0;entryX=0.5;entryY=1;entryDx=0;entryDy=0;fillColor=#f8cecc;strokeColor=#b85450;exitX=0.868;exitY=1.002;exitDx=0;exitDy=0;exitPerimeter=0;" edge="1" parent="1" target="_eeOD_WB6qsGcqNLHBst-14">
          <mxGeometry width="50" height="50" relative="1" as="geometry">
            <mxPoint x="398.88" y="350.4800000000001" as="sourcePoint" />
            <mxPoint x="593" y="353" as="targetPoint" />
            <Array as="points">
              <mxPoint x="401" y="368.76" />
              <mxPoint x="630" y="370" />
            </Array>
          </mxGeometry>
        </mxCell>
        <mxCell id="_eeOD_WB6qsGcqNLHBst-26" value="" style="endArrow=classic;html=1;rounded=0;" edge="1" parent="1">
          <mxGeometry width="50" height="50" relative="1" as="geometry">
            <mxPoint x="540" y="390" as="sourcePoint" />
            <mxPoint x="510" y="370" as="targetPoint" />
          </mxGeometry>
        </mxCell>
        <mxCell id="_eeOD_WB6qsGcqNLHBst-27" value="&lt;font style=&quot;font-size: 8px;&quot;&gt;220 Ohm resistor for each LED wire&lt;/font&gt;" style="text;html=1;align=center;verticalAlign=middle;resizable=0;points=[];autosize=1;strokeColor=none;fillColor=none;" vertex="1" parent="1">
          <mxGeometry x="485" y="378" width="150" height="30" as="geometry" />
        </mxCell>
        <mxCell id="_eeOD_WB6qsGcqNLHBst-28" value="LCD" style="rounded=0;whiteSpace=wrap;html=1;" vertex="1" parent="1">
          <mxGeometry x="170" y="390" width="120" height="60" as="geometry" />
        </mxCell>
        <mxCell id="_eeOD_WB6qsGcqNLHBst-29" value="" style="endArrow=none;html=1;rounded=0;entryX=0.37;entryY=1.001;entryDx=0;entryDy=0;entryPerimeter=0;exitX=1.002;exitY=0.328;exitDx=0;exitDy=0;exitPerimeter=0;" edge="1" parent="1" source="_eeOD_WB6qsGcqNLHBst-28" target="_eeOD_WB6qsGcqNLHBst-2">
          <mxGeometry width="50" height="50" relative="1" as="geometry">
            <mxPoint x="290" y="408" as="sourcePoint" />
            <mxPoint x="340" y="358" as="targetPoint" />
            <Array as="points">
              <mxPoint x="320" y="410" />
            </Array>
          </mxGeometry>
        </mxCell>
        <mxCell id="_eeOD_WB6qsGcqNLHBst-30" value="" style="endArrow=none;html=1;rounded=0;entryX=0.397;entryY=1;entryDx=0;entryDy=0;entryPerimeter=0;exitX=1.006;exitY=0.435;exitDx=0;exitDy=0;exitPerimeter=0;fillColor=#f8cecc;strokeColor=#b85450;" edge="1" parent="1" source="_eeOD_WB6qsGcqNLHBst-28" target="_eeOD_WB6qsGcqNLHBst-2">
          <mxGeometry width="50" height="50" relative="1" as="geometry">
            <mxPoint x="294" y="417" as="sourcePoint" />
            <mxPoint x="323" y="357" as="targetPoint" />
            <Array as="points">
              <mxPoint x="324" y="417" />
            </Array>
          </mxGeometry>
        </mxCell>
        <mxCell id="_eeOD_WB6qsGcqNLHBst-31" value="" style="endArrow=none;html=1;rounded=0;entryX=0.42;entryY=1.004;entryDx=0;entryDy=0;entryPerimeter=0;exitX=1;exitY=0.5;exitDx=0;exitDy=0;fillColor=#f8cecc;strokeColor=#b85450;" edge="1" parent="1" source="_eeOD_WB6qsGcqNLHBst-28" target="_eeOD_WB6qsGcqNLHBst-2">
          <mxGeometry width="50" height="50" relative="1" as="geometry">
            <mxPoint x="295" y="421" as="sourcePoint" />
            <mxPoint x="328" y="355" as="targetPoint" />
            <Array as="points">
              <mxPoint x="328" y="422" />
            </Array>
          </mxGeometry>
        </mxCell>
        <mxCell id="_eeOD_WB6qsGcqNLHBst-32" value="" style="endArrow=none;html=1;rounded=0;entryX=0.449;entryY=1.004;entryDx=0;entryDy=0;entryPerimeter=0;exitX=1.006;exitY=0.611;exitDx=0;exitDy=0;exitPerimeter=0;fillColor=#f8cecc;strokeColor=#b85450;" edge="1" parent="1" source="_eeOD_WB6qsGcqNLHBst-28" target="_eeOD_WB6qsGcqNLHBst-2">
          <mxGeometry width="50" height="50" relative="1" as="geometry">
            <mxPoint x="295" y="426.5" as="sourcePoint" />
            <mxPoint x="332" y="357.5" as="targetPoint" />
            <Array as="points">
              <mxPoint x="333" y="428.5" />
            </Array>
          </mxGeometry>
        </mxCell>
      </root>
    </mxGraphModel>
  </diagram>
</mxfile>
